<svg width="195" height="89" viewBox="0 0 195 89" fill="none" xmlns="http://www.w3.org/2000/svg">
<path d="M0.222293 64.2642L0.849976 0.0689697L12.3422 0.181337L11.8252 53.0532L38.0207 53.3094L37.91 64.6327L0.222293 64.2642Z" fill="white"/>
<path d="M65.6148 66.2411C61.0235 66.1962 57.0062 65.072 53.5629 62.8686C50.1195 60.6652 47.4447 57.6519 45.5383 53.8287C43.6604 49.9761 42.7458 45.5682 42.7943 40.6049C42.8434 35.5822 43.8724 31.1785 45.8813 27.3936C47.8905 23.579 50.6378 20.6187 54.1233 18.5127C57.6088 16.4068 61.6049 15.3758 66.1117 15.4199C70.7029 15.4648 74.7202 16.5889 78.1636 18.7924C81.6351 20.9961 84.3239 24.0244 86.2299 27.8773C88.1363 31.7004 89.0652 36.0936 89.0167 41.0569C88.9678 46.0498 87.9388 50.4536 85.9296 54.2682C83.9489 58.0534 81.2016 61.0137 77.6876 63.1491C74.2021 65.255 70.1779 66.2857 65.6148 66.2411ZM65.7255 54.9178C69.4154 54.9539 72.1745 53.673 74.0027 51.0753C75.8595 48.4481 76.808 45.069 76.8484 40.9379C76.8903 36.6582 75.9942 33.2313 74.1601 30.6572C72.3543 28.0834 69.6345 26.7787 66.001 26.7432C63.4941 26.7187 61.4321 27.293 59.8149 28.4661C58.1978 29.6392 56.9845 31.277 56.1752 33.3794C55.3941 35.482 54.9898 37.9302 54.9625 40.7239C54.9204 45.0333 55.8023 48.4749 57.6081 51.0487C59.4425 53.5931 62.1483 54.8828 65.7255 54.9178Z" fill="white"/>
<path d="M117.37 88.1476C114.779 88.1223 112.318 87.6524 109.989 86.7379C107.66 85.8532 105.573 84.6141 103.73 83.0208C101.914 81.4574 100.439 79.6299 99.3042 77.5382L110.005 72.2036C110.723 73.6373 111.755 74.7323 113.099 75.4885C114.472 76.245 115.961 76.6311 117.567 76.6468C119.285 76.6636 120.908 76.3673 122.435 75.7581C123.962 75.1786 125.182 74.284 126.095 73.0742C127.036 71.8945 127.487 70.4128 127.449 68.6291L127.585 54.6309L129.022 54.645L129.386 17.3761L139.442 17.4744L138.939 68.9197C138.927 70.1085 138.86 71.2225 138.737 72.2616C138.642 73.3307 138.463 74.3841 138.199 75.4218C137.438 78.3569 136.048 80.7658 134.03 82.6483C132.04 84.5311 129.604 85.9191 126.721 86.8123C123.839 87.7353 120.722 88.1804 117.37 88.1476ZM116.565 66.7393C112.368 66.6982 108.703 65.5478 105.571 63.288C102.438 61.0281 100.003 57.9726 98.2655 54.1213C96.5566 50.2704 95.7258 45.9376 95.7728 41.1229C95.8208 36.2191 96.7506 31.8738 98.5623 28.087C100.403 24.2708 102.953 21.2788 106.214 19.1112C109.474 16.9436 113.288 15.8812 117.654 15.9239C121.991 15.9663 125.628 17.1164 128.564 19.3743C131.5 21.6323 133.709 24.6856 135.193 28.5344C136.676 32.3831 137.395 36.7148 137.348 41.5294C137.301 46.3441 136.484 50.6608 134.897 54.4795C133.338 58.2985 131.027 61.3076 127.963 63.5069C124.9 65.7062 121.1 66.7836 116.565 66.7393ZM118.53 55.9691C121.093 55.9942 123.141 55.4049 124.674 54.2012C126.235 52.9978 127.364 51.2998 128.062 49.1071C128.759 46.9145 129.122 44.3619 129.151 41.4493C129.179 38.5367 128.866 35.9775 128.212 33.7716C127.557 31.5657 126.49 29.8462 125.009 28.6131C123.556 27.3803 121.632 26.7521 119.238 26.7287C116.675 26.7037 114.556 27.3517 112.881 28.6729C111.235 29.9646 110.006 31.7211 109.196 33.9424C108.385 36.1339 107.967 38.5671 107.941 41.2419C107.915 43.9464 108.271 46.4169 109.009 48.6533C109.748 50.8601 110.9 52.625 112.465 53.9481C114.029 55.2712 116.051 55.9449 118.53 55.9691Z" fill="white"/>
<path d="M171.324 67.2747C166.733 67.2298 162.716 66.1056 159.272 63.9022C155.829 61.6988 153.154 58.6855 151.248 54.8623C149.37 51.0097 148.455 46.6018 148.504 41.6385C148.553 36.6158 149.582 32.2121 151.591 28.4272C153.6 24.6126 156.347 21.6523 159.833 19.5463C163.318 17.4404 167.314 16.4094 171.821 16.4535C176.412 16.4984 180.43 17.6225 183.873 19.826C187.345 22.0297 190.033 25.058 191.939 28.9109C193.846 32.734 194.775 37.1272 194.726 42.0905C194.677 47.0834 193.648 51.4872 191.639 55.3018C189.658 59.087 186.911 62.0473 183.397 64.1827C179.912 66.2886 175.887 67.3193 171.324 67.2747ZM171.435 55.9514C175.125 55.9875 177.884 54.7066 179.712 52.1089C181.569 49.4817 182.518 46.1026 182.558 41.9715C182.6 37.6918 181.704 34.2649 179.87 31.6908C178.064 29.117 175.344 27.8123 171.71 27.7768C169.204 27.7523 167.142 28.3266 165.524 29.4997C163.907 30.6728 162.694 32.3105 161.885 34.413C161.104 36.5156 160.699 38.9638 160.672 41.7575C160.63 46.0669 161.512 49.5085 163.318 52.0823C165.152 54.6267 167.858 55.9164 171.435 55.9514Z" fill="white"/>
</svg>
